<svg width="165" height="73" viewBox="0 0 165 73" fill="none" xmlns="http://www.w3.org/2000/svg">
<g clip-path="url(#clip0)">
<path d="M98.8187 68.6577C96.0165 68.6577 93.7088 67.3468 92.7198 65.2166C90.9066 61.1201 89.7528 54.3199 90.4945 48.9125C94.9451 49.5679 98.3242 50.1414 101.951 50.7149C101.951 50.7149 102.775 56.2043 104.588 57.1874C105 57.4332 109.78 55.9585 109.451 54.4018C107.473 44.0786 115.962 25.8081 128.819 28.9214C133.929 30.1504 135.412 36.2133 135 39.0808C142.665 24.743 161.868 26.5455 160.22 38.5892C158.983 47.6835 147.61 54.6476 141.511 56.7778C142.088 57.1055 142.335 58.0887 148.104 58.1706C153.874 58.2525 160.22 53.7464 160.549 53.5006C161.126 53.0909 165.989 53.6644 164.835 54.8934C164.835 54.8934 155.604 63.3322 147.527 63.4142C139.451 63.4961 135.247 60.6285 135.247 60.6285C135.165 60.6285 129.643 63.3322 125.934 63.7419C122.308 64.1515 116.291 63.2503 114.066 61.7755C110.687 64.1515 106.896 66.0359 102.94 67.8384C101.621 68.33 100.22 68.6577 98.8187 68.6577ZM120.247 57.679C120.494 57.9248 126.099 60.3008 131.209 55.6308C131.126 52.2716 131.374 49.2402 131.951 46.7003C128.571 52.5993 120.577 57.5152 120.412 57.5971C120.412 57.679 120.33 57.679 120.247 57.679ZM125.027 37.0326C122.885 36.2952 120.907 38.3434 119.505 40.4736C116.538 44.8979 117.115 49.0763 117.61 51.0427C119.835 50.1414 124.533 46.4546 125.769 42.7677C126.346 40.8014 127.088 37.8519 125.027 37.0326ZM149.093 36.459C146.456 34.9024 143.489 38.1796 142.5 39.3266C139.698 42.8496 138.626 48.1751 138.874 50.8788C143.901 48.5847 147.28 44.5702 148.104 43.5051C149.67 41.7026 151.813 38.0157 149.093 36.459Z" fill="black"/>
<path d="M71.7857 39.4085C68.2418 38.5073 68.3242 35.9675 68.0769 33.5915C66.3462 36.0494 66.3462 36.2952 65.3572 38.917C61.8956 38.4254 59.7528 38.2615 54.9725 37.4422C56.4561 32.2806 64.6978 10.651 79.2033 0.0819414C79.6978 -0.327711 88.3517 1.72055 88.022 2.1302C74.4231 21.1381 78.2967 28.7576 80.522 29.9046C82.8297 31.0516 88.1868 32.8541 101.126 4.34232C101.374 3.76881 109.615 5.73514 109.286 6.39058C103.517 18.1886 101.786 27.3648 100.797 34.0011C100.385 37.0326 100.137 40.5556 100.632 43.5051C96.0165 43.0135 93.3791 42.5219 90.7418 42.1122C90.3297 41.2929 90.7418 38.2615 91.5659 36.2133C90.9066 38.9989 88.5165 42.1122 84.5605 41.6207C84.1484 41.6207 74.5879 40.1459 71.7857 39.4085Z" fill="black"/>
<path d="M46.0714 72.2626C44.8352 70.3782 50.3571 49.8137 53.0769 43.5051C57.033 43.9966 60.1648 44.1605 63.7912 44.6521C59.1758 54.9753 55.7143 70.5421 54.478 73C51.4286 72.6723 49.0385 72.5084 46.0714 72.2626Z" fill="black"/>
<path d="M71.456 58.9899C67.0055 58.0887 66.0989 46.0449 67.1703 44.9798C71.456 45.5533 84.3132 47.6016 85.9615 48.0932C86.3736 49.5679 77.3901 60.1369 71.456 58.9899Z" fill="black"/>
<path d="M38.489 36.0494L0 31.4613V19.7452L38.489 24.3333V36.0494Z" fill="black"/>
<path d="M38.489 47.8474L0 43.3412V35.394L38.489 39.9821V47.8474Z" fill="black"/>
<path d="M38.489 57.5152L0 53.009V47.0281L38.489 51.6162V57.5152Z" fill="black"/>
</g>
<defs>
<clipPath id="clip0">
<rect width="165" height="73" fill="white"/>
</clipPath>
</defs>
</svg>
